<?xml version="1.0" standalone="no"?>
<!DOCTYPE svg PUBLIC "-//W3C//DTD SVG 20010904//EN"
 "http://www.w3.org/TR/2001/REC-SVG-20010904/DTD/svg10.dtd">
<svg version="1.0" xmlns="http://www.w3.org/2000/svg"
 width="260.000000pt" height="260.000000pt" viewBox="0 0 260.000000 260.000000"
 preserveAspectRatio="xMidYMid meet">
<metadata>
Created by potrace 1.14, written by Peter Selinger 2001-2017
</metadata>
<g transform="translate(0.000000,260.000000) scale(0.100000,-0.100000)"
fill="#000000" stroke="none">
<path d="M1145 2589 c-65 -9 -116 -18 -137 -25 -9 -3 -25 -7 -35 -9 -55 -12
-140 -40 -153 -50 -8 -6 -33 -17 -55 -24 -22 -8 -52 -22 -66 -32 -14 -10 -29
-16 -33 -12 -3 3 -6 2 -6 -4 0 -6 -13 -16 -30 -23 -16 -7 -30 -16 -30 -21 0
-5 -5 -9 -11 -9 -27 0 -219 -170 -295 -262 -38 -46 -125 -178 -117 -178 4 0 3
-4 -3 -8 -20 -12 -96 -183 -110 -244 -1 -5 -2 -9 -4 -10 -2 -3 -3 -6 -30 -128
-44 -195 -24 -502 43 -670 6 -14 11 -31 13 -38 5 -28 88 -192 96 -192 5 0 7
-4 3 -9 -3 -5 0 -15 7 -23 7 -7 26 -33 43 -58 16 -25 37 -54 46 -65 36 -44
134 -150 142 -154 5 -1 19 -13 32 -25 14 -13 36 -31 51 -42 14 -10 31 -23 38
-29 27 -23 76 -55 85 -55 5 0 11 -3 13 -8 6 -15 176 -92 268 -121 148 -47 252
-61 430 -56 199 5 317 31 489 106 79 35 116 54 119 62 2 4 10 7 18 7 8 0 14 5
14 10 0 6 4 10 10 10 18 0 127 81 192 143 22 20 44 37 49 37 5 0 8 3 7 8 -1 4
12 23 30 42 18 19 43 48 55 63 12 16 33 42 45 58 13 16 20 29 15 29 -4 0 -3 4
2 8 34 24 113 184 154 309 44 134 60 248 59 413 -1 167 -29 327 -75 440 -3 8
-7 17 -8 20 -1 3 -9 23 -20 45 -10 22 -19 47 -21 55 -2 8 -8 16 -14 18 -5 2
-8 8 -4 13 3 5 0 9 -5 9 -6 0 -11 6 -11 13 0 12 -100 166 -133 202 -50 57
-147 155 -147 149 0 -4 -8 2 -17 13 -26 28 -128 103 -141 103 -7 0 -12 4 -12
9 0 14 -196 107 -275 131 -38 12 -81 25 -95 30 -84 29 -361 46 -475 29z"/>
</g>
</svg>
